<?xml version="1.0" encoding="utf-8"?>
<!-- Generator: Adobe Illustrator 24.0.2, SVG Export Plug-In . SVG Version: 6.00 Build 0)  -->
<svg version="1.1" id="Layer_1" xmlns="http://www.w3.org/2000/svg" xmlns:xlink="http://www.w3.org/1999/xlink" x="0px" y="0px"
	 viewBox="0 0 595.28 841.89" style="enable-background:new 0 0 595.28 841.89;" xml:space="preserve">
<style type="text/css">
	.st0{fill:#06A1DE;}
	.st1{fill:#0A1443;}
	.st2{fill:#091542;}
	.st3{fill:#A7A7A9;}
	.st4{fill:#081541;}
	.st5{fill:#0A1643;}
	.st6{fill:#091443;}
	.st7{fill:#091342;}
	.st8{fill:#091343;}
	.st9{fill:#05A2DF;}
	.st10{fill:#0A1542;}
</style>
<path class="st0" d="M290.62,436.89c7.56-10.35,16.66-19.14,27-26.66c17.92-13.03,37.66-21.92,59.68-25.12
	c7.85-1.14,15.82-1.02,24.77,0.8c-5.58,3.09-9.92,6.22-13.95,9.84c-15.77,14.15-31.44,28.41-46.72,43.09
	c-6.65,6.39-13.44,12.63-20.14,18.96c-3.1,2.93-4.56,6.35-4.8,10.84c-0.48,9.05-4.9,16.64-10.82,23.26
	c-3.39,3.79-6.99,3.68-10.78,0.22c-6.06-5.52-9.69-12.58-12.5-20.13c-0.51-1.37-0.59-2.97-2.02-3.87
	c-1.19-9.09,0.53-17.58,5.41-25.34C287.1,440.64,287.85,437.9,290.62,436.89z"/>
<path class="st1" d="M385.57,319.98c8.78-7.38,17.84-7.39,26.31-1.69c4.09,2.76,6,2.64,9.84-0.23c7.88-5.89,16.93-5.72,25.49-1.45
	c8.02,4,11.22,11.25,11.26,20.05c0.06,12.1,0.13,24.21,0.37,36.31c0.05,2.55-0.75,3.29-3.16,3.14c-2.48-0.15-5.01-0.17-7.48,0.08
	c-3.16,0.33-4.32-0.54-4.23-4.01c0.25-9.73,0.07-19.46,0.04-29.2c-0.01-1.75,0.02-3.5-0.16-5.24c-0.67-6.51-4.6-10.08-10.81-9.92
	c-6.34,0.16-10.87,4.51-10.9,10.87c-0.05,11.35,0.02,22.71,0.23,34.06c0.05,2.66-0.74,3.55-3.34,3.34c-3.72-0.3-8.45,1.37-10.9-0.81
	c-2.33-2.07-0.63-6.84-0.7-10.42c-0.16-8.98,0.04-17.97-0.25-26.95c-0.2-6.26-4.48-10-10.72-10.08c-5.72-0.07-10.01,3.94-10.57,9.94
	c-0.12,1.24-0.08,2.49-0.07,3.74c0.1,10.36,0.08,20.71,0.38,31.06c0.09,3.06-0.87,3.96-3.76,3.65c-3.57-0.38-8.35,1.47-10.42-0.94
	c-1.76-2.04-0.59-6.66-0.6-10.14c-0.03-15.47,0.03-30.95-0.09-46.42c-0.02-2.68,0.54-3.96,3.49-3.64c2.1,0.23,4.26,0.22,6.35-0.03
	C384.49,314.67,386.47,315.45,385.57,319.98z"/>
<path class="st2" d="M320.51,217.03c14.85,14.91,29.73,29.79,44.55,44.73c12.02,12.12,23.96,24.33,35.93,36.5
	c0.68,0.7,1.3,1.46,2.29,2.58c-9.02,2.03-17.52,1.82-26.05-0.47c-13.03-3.51-23.92-10.97-34.53-18.85
	c-11.53-8.55-22.01-18.32-32.14-28.48c-1.05-1.05-1.89-2.3-2.83-3.45c-0.04-1.73,1.31-2.59,2.34-3.6
	c6.23-6.13,9.39-13.48,9.15-22.29C319.16,221.44,318.51,218.94,320.51,217.03z"/>
<path class="st3" d="M194.22,296.07c27.69-24.18,51.81-51.27,79.09-76.33c-2.34,6.45-2.59,12.38-1.49,18.4
	c1.8,9.8,5.75,18.27,14.77,23.46c3.09,1.77,0.34,2.63-0.49,3.3c-6.07,4.99-12.53,9.43-19.39,13.26c-12.92,7.22-26.78,12-41.13,15.34
	C215.5,295.86,205.24,296.86,194.22,296.07z"/>
<path class="st4" d="M290.62,436.89c-1.01,2.71-2.91,4.89-4.36,7.33c-3.65,6.17-5.1,12.9-5.08,20c0.01,1.35,0.21,2.76-0.85,3.89
	c-17.3-16.92-34.63-33.82-51.9-50.77c-9.79-9.61-19.49-19.33-31-26.97c-0.89-0.59-1.59-1.45-2.4-2.19c1.37-1.48,2.95-1.06,4.38-1.23
	c22.36-2.68,40.9,6.4,58.18,19.1C269.8,415.02,280.67,425.48,290.62,436.89z"/>
<path class="st5" d="M346.46,369.98c-12.58,13.1-38.6,9.89-46.24-14.21c-0.48-1.51-0.53-2.5,1.42-2.99
	c3.49-0.88,6.94-1.99,10.37-3.09c1.65-0.53,2.19-0.14,2.78,1.62c2.65,7.88,9.61,12.42,17.12,11.47c8.3-1.05,13.46-6.74,14.5-15.99
	c0.83-7.34-3.83-14.99-10.67-17.55c-7.37-2.75-15.35,0.02-19.82,7c-0.69,1.08-1.03,1.78-2.47,1.07c-2.78-1.39-5.62-2.68-8.5-3.86
	c-2.28-0.94-2.52-2.31-1.56-4.4c4.4-9.62,16.49-16.4,27.02-15.2c5.05,0.58,9.71,2.09,13.95,4.91c0.6,0.4,1.17,0.94,2.26,0.66
	c-0.92-4.37,1.64-4.84,5.02-4.42c2.92,0.36,6.81-1.36,8.52,0.73c1.43,1.75,0.51,5.47,0.5,8.32c-0.01,16.34-0.13,32.68-0.03,49.02
	c0.02,2.55-0.75,3.35-3.13,3.14c-1.36-0.12-2.74-0.01-4.11-0.02C347.27,376.11,347.27,376.11,346.46,369.98z"/>
<path class="st1" d="M208.25,313.99c-18.12,2.08-28.84,15.7-27.85,34c0.69,12.83,9.93,24.54,22.19,28.12
	c12.56,3.66,27.47-1.02,34.72-10.8c0.99-1.33,1-2.02-0.41-2.92c-2.41-1.54-4.85-3.07-7.05-4.89c-1.66-1.37-2.5-1.1-3.86,0.43
	c-4.06,4.55-9.34,6.46-15.37,6.36c-6.66-0.11-13.6-4.69-15.72-10.28c-0.88-2.34-0.78-3.65,2.39-3.55c6.73,0.2,13.47,0.06,20.2,0.06
	c6.48-0.12,12.98-0.58,19.42,0.22c3.8,0.46,4.87-1.48,5.09-4.63C243.35,327.08,226.69,311.86,208.25,313.99z M226.8,339.85
	c-5.11-0.08-10.22-0.02-15.33-0.02v0.03c-5.12,0-10.23-0.05-15.34,0.03c-1.91,0.03-2.39-0.39-1.68-2.34
	c2.24-6.1,9.45-11.15,16.33-11.22c8.15-0.07,15.5,4.57,17.96,11.09C229.62,339.73,228.7,339.89,226.8,339.85z"/>
<path class="st6" d="M518.68,356.1c4.76-12.99,9.38-25.34,13.78-37.76c1.01-2.84,2.46-3.92,5.46-3.59c2.84,0.31,5.73,0.17,8.6,0.13
	c2.12-0.04,3.02,0.37,2.02,2.78c-8.74,21.05-17.36,42.14-26.13,63.18c-1.24,2.97-3.03,5.72-4.71,8.48
	c-6.59,10.79-20.19,10.98-29.21,6.41c-1.47-0.74-1.63-1.63-0.86-2.97c0.36-0.64,0.55-1.39,0.78-2.09c0.79-2.36,1-5.19,2.48-6.98
	c1.92-2.33,4.31,0.68,6.65,0.74c4.67,0.1,8.03-1.2,10.58-5.41c3.02-5.01,3.31-9.45,0.78-14.93c-6.93-15.03-13.66-30.17-19.76-45.57
	c-1.15-2.9-0.91-4.01,2.49-3.73c3.22,0.26,6.48,0.2,9.72,0.14c1.83-0.04,2.89,0.41,3.57,2.36
	C509.4,330.06,514.64,342.58,518.68,356.1z"/>
<path class="st7" d="M42.27,345.95c0-8.74,0.1-17.48-0.06-26.21c-0.05-2.68,0.89-3.77,3.4-3.16c2.28,0.56,5.69-1.87,6.65,2.59
	c0.21,0.97,1.5-0.14,2.19-0.49c9.19-4.59,17.61-3.48,25.14,3.49c1.2,1.11,1.58,0.83,2.56-0.14c6.9-6.86,15.1-7.81,23.83-4.52
	c6.61,2.49,10.57,7.47,11.02,14.67c0.86,13.71-0.01,27.45,0.34,41.18c0.04,1.45-0.59,1.87-1.97,2.04c-7.05,0.89-7.52,0.52-7.54-6.55
	c-0.04-10.49,0.03-20.97-0.13-31.46c-0.12-7.97-4.44-11.86-12.35-11.49c-6.77,0.32-10.52,4.15-10.63,11.35
	c-0.17,10.48-0.1,20.97-0.14,31.46c-0.03,7.15-0.03,7.01-7.14,7.03c-2.54,0.01-2.75-1-2.74-3.08c0.04-10.86-0.06-21.72-0.12-32.58
	c-0.01-1.25-0.04-2.5-0.16-3.74c-0.88-9.04-10.64-13.68-18.36-8.71c-3.3,2.12-4.19,5.39-4.18,9.07c0.03,11.48,0.07,22.97,0.01,34.45
	c-0.01,1.47,0.94,3.82-1.05,4.23c-2.48,0.51-5.2,0.23-7.76-0.15c-1.02-0.15-0.52-1.76-0.52-2.7c-0.03-8.86-0.02-17.72-0.02-26.59
	C42.45,345.95,42.36,345.95,42.27,345.95z"/>
<path class="st8" d="M301.02,375.97c-0.55,0.18-0.66,0.25-0.77,0.25c-5.09-0.27-10.8,1.63-15.11-0.68
	c-4.15-2.22-5.83-7.83-8.75-11.83c-1.54-2.11-3.08-4.25-4.37-6.51c-1.38-2.44-2.17-1.87-3.51,0.09c-3.97,5.74-8.19,11.3-12.16,17.04
	c-1.06,1.54-2.18,2.04-3.98,1.99c-4.34-0.12-8.68-0.04-13.77-0.04c4.1-5.64,7.76-10.7,11.44-15.75c3.45-4.73,6.83-9.52,10.41-14.15
	c1.34-1.73,1.11-2.92-0.12-4.54c-6.12-8.02-12.16-16.11-18.19-24.2c-0.48-0.64-1.58-1.13-1.07-2.15c0.48-0.97,1.55-0.56,2.37-0.59
	c1.49-0.06,2.99,0.01,4.49,0.01c9.75,0.04,9.75,0.04,15.61,8.06c2.27,3.11,4.53,6.23,7.06,9.7c3.7-5.25,7.32-10.21,10.74-15.31
	c1.16-1.74,2.36-2.54,4.53-2.45c4.34,0.18,8.7,0.05,13.78,0.05c-3.42,4.69-6.54,8.96-9.65,13.23c-3.23,4.44-6.33,8.97-9.72,13.28
	c-1.6,2.03-1.63,3.3,0.04,5.4C287.65,356.1,294.66,365.62,301.02,375.97z"/>
<path class="st9" d="M320.51,217.03c0.85,8.21,0.11,16.07-4.25,23.41c-2.22,3.74-5.05,6.7-8.53,9.15
	c-11.01-8.77-19.77-19.27-25.08-32.45c-0.66-1.64-1.05-3.32-1.07-5.09c-0.1-9.09,2.45-17.49,6.98-25.25
	c2.92-4.99,7.92-5.97,12.85-2.95c2.27,1.39,4.09,3.26,5.63,5.41C313.1,197.75,317.67,206.97,320.51,217.03z"/>
<path class="st8" d="M177.5,316.42c-2.85,6.89-5.49,13.45-8.26,19.95c-6.94,16.28-12.48,33.12-19.97,49.17
	c-5.32,11.4-14.47,15.18-25.38,11.23c-3.33-1.2-4.77-2.72-3.08-6.24c0.74-1.55,1.1-3.28,1.71-5.16c2.84,1.48,5.61,2.7,8.85,2.59
	c3.56-0.11,6.2-1.51,8.13-4.45c2.22-3.37,3.63-7.07,4.79-10.91c0.66-2.18-0.54-3.88-1.3-5.66c-6.81-16.06-13.64-32.1-20.56-48.11
	c-0.84-1.95-0.78-2.5,1.55-2.56c8.55-0.24,8.48-0.29,11.62,7.57c4.67,11.67,9.45,23.29,14.51,35.72c2.33-5.95,4.37-11.1,6.35-16.26
	c3.07-8.02,6.18-16.03,9.1-24.11c0.76-2.11,1.81-2.96,4.03-2.81C172.08,316.54,174.56,316.42,177.5,316.42z"/>
<path class="st10" d="M482.94,331.44c0,13.85-0.07,27.69,0.06,41.54c0.02,2.61-0.6,3.6-3.3,3.35c-2.6-0.24-5.25-0.27-7.85-0.05
	c-3.03,0.25-3.72-0.95-3.71-3.85c0.08-24.45,0-48.89-0.04-73.34c0-3.24,0.16-6.5-0.1-9.72c-0.19-2.45,0.74-3,2.95-2.86
	c2.86,0.18,5.75,0.26,8.6,0.06c2.63-0.18,3.39,0.74,3.37,3.35c-0.12,13.84-0.05,27.69-0.05,41.54
	C482.9,331.44,482.92,331.44,482.94,331.44z"/>
</svg>
