<?xml version="1.0" standalone="no"?>
<!DOCTYPE svg PUBLIC "-//W3C//DTD SVG 20010904//EN"
 "http://www.w3.org/TR/2001/REC-SVG-20010904/DTD/svg10.dtd">
<svg version="1.0" xmlns="http://www.w3.org/2000/svg"
 width="200.000000pt" height="200.000000pt" viewBox="0 0 200.000000 200.000000"
 preserveAspectRatio="xMidYMid meet">

<g transform="translate(0.000000,200.000000) scale(0.100000,-0.100000)"
fill="#000000" stroke="none">
<path d="M247 1134 l-77 -45 0 -89 c0 -49 5 -92 10 -95 6 -4 10 26 10 82 l0
89 69 37 69 37 66 -37 66 -38 0 -75 0 -75 -66 -37 -65 -38 -40 20 -39 20 0 75
0 75 41 20 40 21 35 -21 c29 -19 34 -27 34 -60 0 -33 -5 -41 -36 -59 -19 -12
-39 -19 -44 -16 -14 9 -4 77 14 90 22 16 0 27 -26 13 -14 -7 -18 -21 -18 -63
0 -73 18 -83 82 -48 l48 26 0 57 0 57 -47 26 -48 26 -47 -27 -48 -27 0 -90 0
-90 48 -27 48 -27 75 42 74 43 3 90 c3 102 8 94 -88 147 l-65 36 -78 -45z"/>
<path d="M1640 1011 c0 -53 4 -93 11 -96 6 -4 11 -5 12 -4 7 13 -6 189 -14
189 -5 0 -9 -40 -9 -89z"/>
<path d="M555 1078 c-2 -7 -5 -48 -7 -91 -2 -56 0 -77 10 -77 8 0 13 19 14 58
1 52 3 70 8 97 1 6 12 -19 24 -55 17 -49 27 -65 41 -65 14 0 24 16 39 65 l21
65 2 -50 c4 -73 13 -115 23 -115 11 0 13 52 3 128 -5 46 -9 53 -26 50 -15 -2
-26 -19 -42 -68 l-22 -65 -22 68 c-18 52 -27 67 -42 67 -11 0 -22 -6 -24 -12z"/>
<path d="M940 1000 l0 -90 55 0 c30 0 55 5 55 10 0 6 -20 10 -45 10 -43 0 -45
1 -45 30 0 28 3 30 34 30 19 0 38 5 41 10 4 6 -10 10 -34 10 -39 0 -41 2 -41
30 0 28 2 30 40 30 22 0 40 5 40 10 0 6 -22 10 -50 10 l-50 0 0 -90z"/>
<path d="M792 978 c12 -35 26 -66 32 -70 7 -4 6 -15 -2 -32 -9 -21 -9 -26 1
-26 8 0 26 36 42 83 16 45 30 88 33 95 2 6 -2 12 -10 12 -9 0 -22 -25 -35 -62
l-20 -63 -18 63 c-10 35 -23 62 -31 62 -10 0 -8 -15 8 -62z"/>
<path d="M1101 1009 l22 -31 -23 -30 c-28 -39 -15 -52 15 -14 l23 29 17 -27
c10 -14 24 -26 32 -26 10 0 7 9 -11 33 l-25 33 25 32 c19 23 21 32 11 32 -8 0
-23 -12 -32 -27 l-17 -26 -17 26 c-8 15 -22 27 -29 27 -9 0 -7 -9 9 -31z"/>
<path d="M1240 1032 c0 -4 15 -7 32 -7 49 0 50 -30 1 -42 -33 -8 -38 -12 -38
-38 0 -29 1 -30 55 -31 l55 -1 -3 41 c-6 83 -8 86 -57 86 -25 0 -45 -3 -45 -8z
m70 -76 c0 -26 -21 -39 -45 -29 -23 8 -14 36 15 44 14 4 26 7 28 8 1 1 2 -10
2 -23z"/>
<path d="M1379 1027 c6 -6 11 -35 11 -64 0 -71 18 -68 22 5 3 56 3 57 33 57
30 0 30 -1 33 -57 4 -77 22 -75 22 2 0 56 2 60 23 60 35 0 47 -19 47 -72 0
-26 5 -48 10 -48 12 0 13 99 2 117 -5 8 -41 12 -111 11 -74 0 -100 -3 -92 -11z"/>
<path d="M1700 1037 c0 -16 43 -122 51 -127 6 -5 7 -15 0 -33 -8 -20 -7 -27 2
-27 7 0 26 42 44 95 24 73 28 95 17 95 -9 0 -20 -23 -30 -60 -10 -32 -20 -57
-24 -55 -4 2 -13 29 -20 60 -8 33 -19 55 -27 55 -7 0 -13 -2 -13 -3z"/>
</g>
</svg>
