<?xml version="1.0" standalone="no"?>
<!DOCTYPE svg PUBLIC "-//W3C//DTD SVG 20010904//EN"
 "http://www.w3.org/TR/2001/REC-SVG-20010904/DTD/svg10.dtd">
<svg version="1.0" xmlns="http://www.w3.org/2000/svg"
 width="1024.000000pt" height="1024.000000pt" viewBox="0 0 1024.000000 1024.000000"
 preserveAspectRatio="xMidYMid meet">

<g transform="translate(0.000000,1024.000000) scale(0.100000,-0.100000)"
fill="#000000" stroke="none">
<path d="M1433 6898 c3 -2065 7 -2802 16 -2858 6 -41 14 -93 17 -115 20 -151
80 -441 116 -560 12 -38 22 -72 23 -75 1 -3 5 -12 8 -20 4 -8 27 -76 53 -150
25 -74 62 -169 81 -210 20 -41 55 -115 78 -165 45 -98 211 -378 226 -383 5 -2
9 -8 9 -14 0 -18 165 -229 268 -343 202 -224 514 -505 692 -625 12 -8 28 -20
35 -27 16 -15 300 -204 341 -227 39 -22 68 -40 74 -46 36 -39 797 -429 819
-420 2 1 7 -2 10 -7 3 -5 71 -35 151 -67 80 -32 163 -65 185 -75 22 -10 101
-39 175 -65 74 -25 144 -51 155 -57 12 -5 27 -11 35 -13 8 -2 27 -8 41 -14 66
-27 125 -24 208 10 14 6 28 12 31 13 3 1 12 5 20 8 8 4 74 27 146 51 72 25
155 56 185 69 30 14 115 50 189 80 74 30 201 87 281 126 81 39 150 71 153 71
4 0 12 5 19 10 7 6 68 38 137 71 69 34 127 64 130 67 3 4 30 20 60 36 139 74
550 332 606 381 6 6 22 17 34 25 58 38 225 172 325 260 411 364 671 702 887
1150 38 80 76 156 83 170 25 48 146 414 175 530 16 63 41 185 55 270 34 196
34 195 54 400 7 69 10 1035 11 2813 l0 2707 -3700 0 -3700 0 3 -2782z m7284
-35 c-3 -2694 -3 -2698 -25 -2863 -29 -222 -74 -438 -137 -654 -37 -129 -143
-393 -215 -537 -66 -132 -209 -369 -292 -484 -184 -254 -467 -540 -766 -773
-133 -105 -463 -324 -637 -424 -313 -180 -801 -413 -1130 -539 -182 -69 -360
-129 -385 -129 -39 0 -487 166 -715 265 -286 124 -482 222 -763 382 -422 240
-736 472 -1041 768 -369 359 -619 728 -806 1189 -121 302 -200 630 -247 1031
-8 73 -12 829 -15 2783 l-4 2682 3591 0 3590 0 -3 -2697z"/>
<path d="M1663 6778 l3 -2673 22 -150 c29 -200 53 -318 108 -515 53 -189 65
-224 146 -415 219 -517 577 -970 1079 -1366 154 -122 412 -300 544 -376 39
-22 111 -64 160 -93 343 -201 838 -426 1247 -566 l158 -55 102 32 c242 75 689
266 1023 438 436 224 762 432 1065 680 147 119 428 403 542 546 283 356 491
767 614 1215 41 150 43 158 65 285 56 326 52 123 56 3018 l3 2667 -3470 0
-3470 0 3 -2672z m3541 2537 c38 -32 63 -45 87 -46 31 -2 32 -2 6 -6 -22 -4
-26 -7 -17 -18 6 -7 10 -17 8 -21 -1 -5 2 -20 7 -34 8 -25 9 -25 14 -3 5 18 9
20 21 12 9 -6 11 -12 5 -15 -6 -2 -9 -22 -7 -43 5 -50 -12 -102 -46 -142 -21
-25 -23 -32 -11 -40 10 -6 7 -9 -13 -9 -15 0 -45 -9 -67 -21 l-39 -20 -41 20
c-22 12 -53 21 -68 21 -21 0 -24 3 -13 10 12 8 11 12 -6 32 -27 29 -41 53 -26
44 5 -3 12 -3 15 1 2 5 2 2 0 -6 -5 -18 35 -61 57 -61 8 0 27 7 40 16 l25 16
-24 -22 c-31 -27 -16 -45 39 -45 51 0 72 19 44 40 -10 8 -14 15 -7 15 6 0 15
-4 18 -10 20 -32 89 18 78 58 -6 25 -50 31 -71 10 -9 -9 -16 -8 -29 5 -16 16
-16 18 0 34 15 16 18 16 36 -1 13 -12 30 -17 50 -14 17 2 32 0 35 -6 5 -12 -3
55 -10 92 -2 12 -16 32 -29 44 -14 12 -25 27 -25 34 0 7 -9 16 -21 19 -11 4
-18 9 -16 12 3 2 15 0 26 -7 40 -21 26 -1 -46 64 l-32 29 -55 -47 c-46 -40
-60 -47 -88 -43 l-33 4 35 2 c26 1 48 13 85 46 28 24 52 44 53 45 2 0 28 -20
56 -45z m-19 -45 c-4 -6 -15 -8 -25 -5 -12 4 -22 -1 -29 -12 -10 -17 -10 -17
-11 -1 0 12 -5 16 -17 12 -15 -5 -16 -4 -3 5 20 14 93 15 85 1z m-245 -17
c-14 -2 -31 -12 -37 -21 -11 -14 -13 -14 -13 -1 0 23 10 29 44 28 27 -2 28 -2
6 -6z m140 3 c0 -3 -4 -8 -10 -11 -5 -3 -10 -1 -10 4 0 6 5 11 10 11 6 0 10
-2 10 -4z m308 -3 c-10 -2 -26 -2 -35 0 -10 3 -2 5 17 5 19 0 27 -2 18 -5z
m71 -192 l49 -56 -49 -54 c-45 -50 -48 -58 -52 -115 l-3 -61 -2 63 c-2 62 -1
64 43 111 25 26 45 51 45 55 0 4 -20 32 -45 60 -43 51 -45 56 -43 112 l2 59 3
-59 c4 -54 8 -64 52 -115z m-562 87 c-2 -13 -4 -3 -4 22 0 25 2 35 4 23 2 -13
2 -33 0 -45z m84 26 c-5 -16 -10 -23 -10 -16 -1 7 -5 10 -11 7 -16 -10 -11 12
6 30 21 21 25 16 15 -21z m35 0 c-4 -9 -9 -15 -11 -12 -3 3 -3 13 1 22 4 9 9
15 11 12 3 -3 3 -13 -1 -22z m105 10 c9 -12 24 -15 51 -11 21 3 38 1 38 -3 0
-5 -21 -10 -47 -12 l-48 -3 -3 -47 -3 -48 -55 0 c-29 0 -54 3 -54 8 0 4 21 7
47 7 46 0 48 1 51 31 2 19 -3 38 -13 48 -14 13 -15 19 -5 31 16 19 24 19 41
-1z m-64 -20 c-3 -3 -12 -4 -19 -1 -8 3 -5 6 6 6 11 1 17 -2 13 -5z m333 -54
c0 -10 -7 -20 -15 -24 -11 -4 -15 1 -15 18 0 14 -3 33 -7 43 -6 17 -5 17 15
-1 12 -11 22 -27 22 -36z m-448 7 c-3 -24 -9 -33 -23 -33 -10 0 -19 7 -19 16
0 15 -89 -77 -90 -94 0 -4 20 -31 45 -58 42 -47 45 -54 43 -102 l-2 -51 -3 52
c-4 47 -10 59 -53 107 l-50 54 70 71 c38 39 73 71 78 71 4 0 6 -15 4 -33z m55
-9 c-3 -7 -5 -2 -5 12 0 14 2 19 5 13 2 -7 2 -19 0 -25z m210 10 c-3 -8 -6 -5
-6 6 -1 11 2 17 5 13 3 -3 4 -12 1 -19z m-230 -40 c-3 -8 -6 -5 -6 6 -1 11 2
17 5 13 3 -3 4 -12 1 -19z m164 -30 c-19 -7 -21 -11 -12 -22 10 -12 8 -13 -8
-9 -12 3 -21 9 -21 14 0 13 42 39 53 32 6 -3 0 -10 -12 -15z m-250 -22 c-9
-11 -10 -20 -1 -35 6 -12 8 -21 6 -21 -3 0 -10 9 -16 21 -9 15 -8 24 1 35 6 8
14 14 16 14 3 0 0 -6 -6 -14z m282 -6 c3 -11 1 -18 -4 -14 -5 3 -9 12 -9 20 0
20 7 17 13 -6z m243 -31 c-9 -13 -16 -19 -16 -13 0 5 5 15 12 22 8 8 8 15 -2
29 -13 17 -13 17 4 1 17 -15 17 -18 2 -39z m-465 -28 c20 -18 20 -18 -6 -14
-14 3 -25 12 -25 19 0 19 7 18 31 -5z m364 9 c-3 -5 -12 -10 -18 -10 -7 0 -6
4 3 10 19 12 23 12 15 0z m65 -11 c0 -11 -4 -17 -10 -14 -5 3 -10 13 -10 21 0
8 5 14 10 14 6 0 10 -9 10 -21z m-307 -46 c-13 -2 -33 -2 -45 0 -13 2 -3 4 22
4 25 0 35 -2 23 -4z m235 -9 c31 -15 32 -18 32 -80 0 -71 1 -70 -70 -51 -75
20 -82 31 -25 37 l50 5 0 45 c0 43 -2 45 -30 48 -45 6 -105 -16 -115 -41 l-9
-22 0 22 c-1 13 -9 24 -22 28 -11 4 -18 9 -16 12 3 2 14 0 25 -6 15 -8 27 -7
49 4 37 19 92 19 131 -1z m-282 -90 c33 9 74 -3 68 -19 -3 -7 -22 -15 -42 -19
-20 -3 -49 -8 -64 -12 -19 -4 -28 -2 -28 5 0 7 4 10 9 7 5 -3 24 1 42 9 33 14
33 14 7 15 -24 0 -27 4 -30 43 -2 31 -7 41 -18 39 -10 -1 -8 3 5 13 19 16 20
14 23 -35 3 -49 4 -52 28 -46z m189 -82 c7 -30 -16 -51 -26 -24 -9 24 -36 45
-48 37 -7 -3 -8 0 -5 9 8 21 12 20 34 -6 28 -35 35 -14 11 29 l-21 38 24 -29
c14 -17 28 -41 31 -54z m-286 20 c-14 -5 -39 6 -39 17 0 5 11 4 25 -2 13 -7
20 -14 14 -15z m471 8 c0 -5 -10 -10 -22 -9 -22 0 -22 1 -3 9 11 5 21 9 23 9
1 1 2 -3 2 -9z m-373 -16 c-3 -3 -12 -4 -19 -1 -8 3 -5 6 6 6 11 1 17 -2 13
-5z m38 -4 c3 -6 -1 -7 -9 -4 -18 7 -21 14 -7 14 6 0 13 -4 16 -10z m235 6 c0
-2 -13 -6 -29 -8 -17 -2 -28 -1 -25 4 5 8 54 12 54 4z m-185 -42 c0 -21 -1
-21 -17 -7 -19 17 -17 30 4 30 7 0 13 -11 13 -23z m49 -49 c-7 -16 -24 -21
-24 -6 0 8 7 13 27 20 1 1 0 -6 -3 -14z m-494 -196 c0 -16 -4 -29 -10 -29 -5
0 -10 16 -10 36 0 21 4 33 10 29 6 -3 10 -19 10 -36z m47 -11 c-2 -13 -4 -5
-4 17 -1 22 1 32 4 23 2 -10 2 -28 0 -40z m570 0 c-2 -13 -4 -5 -4 17 -1 22 1
32 4 23 2 -10 2 -28 0 -40z m113 22 c5 0 7 8 3 18 -4 10 -2 14 3 9 5 -5 9 -22
10 -38 2 -27 0 -28 -12 -12 -13 17 -13 17 -14 1 0 -10 -3 -18 -7 -18 -5 0 -7
15 -6 32 2 42 4 47 10 26 2 -10 8 -18 13 -18z m-860 -10 c0 -16 -3 -30 -7 -30
-5 0 -8 14 -8 30 0 17 3 30 8 30 4 0 7 -13 7 -30z m56 -2 c14 -28 15 -31 2
-20 -14 11 -31 52 -22 52 2 0 11 -15 20 -32z m194 -9 c0 -5 -11 -2 -25 7 -14
9 -25 20 -25 25 0 5 11 2 25 -7 14 -9 25 -20 25 -25z m90 13 c0 -15 -2 -15
-10 -2 -13 20 -13 33 0 25 6 -3 10 -14 10 -23z m40 11 c28 -25 25 -37 -5 -17
-14 9 -25 20 -25 25 0 13 7 11 30 -8z m60 -13 c0 -16 -3 -30 -7 -30 -5 0 -8
14 -8 30 0 17 3 30 8 30 4 0 7 -13 7 -30z m95 0 c16 -30 9 -40 -13 -18 -12 12
-17 48 -7 48 2 0 11 -13 20 -30z m72 -22 c-4 -9 -6 -7 -6 5 -1 9 -8 17 -16 17
-8 0 -15 7 -15 15 0 13 4 12 21 -4 12 -11 19 -25 16 -33z m38 22 c0 -16 -3
-30 -7 -30 -5 0 -8 14 -8 30 0 17 4 30 8 30 4 0 8 -13 7 -30z m55 0 c0 -16 -4
-30 -8 -30 -5 0 -8 14 -8 30 0 17 3 30 8 30 4 0 8 -13 8 -30z m110 0 c0 -16
-4 -30 -10 -30 -5 0 -10 14 -10 30 0 17 5 30 10 30 6 0 10 -13 10 -30z m107
-17 c-3 -10 -5 -2 -5 17 0 19 2 27 5 18 2 -10 2 -26 0 -35z m45 17 c3 -16 1
-30 -4 -30 -4 0 -8 14 -8 30 0 17 2 30 4 30 2 0 6 -13 8 -30z m63 1 c0 -16 -3
-27 -7 -24 -13 7 -7 53 6 53 1 0 1 -13 1 -29z m122 -3 l12 -33 -19 24 c-21 24
-26 41 -12 41 4 0 13 -15 19 -32z m76 6 c26 -36 17 -37 -16 -3 -16 16 -22 29
-15 29 7 0 21 -12 31 -26z m-941 -9 c3 -13 1 -22 -3 -19 -9 5 -13 44 -5 44 2
0 6 -11 8 -25z m798 -15 c0 -5 -4 -10 -10 -10 -5 0 -10 5 -10 10 0 6 5 10 10
10 6 0 10 -4 10 -10z m-1060 -99 c0 -17 -4 -33 -10 -36 -6 -4 -10 8 -10 29 0
20 5 36 10 36 6 0 10 -13 10 -29z m75 -21 c7 -24 7 -24 -9 -5 -8 11 -15 29
-15 40 0 16 1 17 8 5 5 -8 12 -26 16 -40z m62 3 c-3 -10 -5 -2 -5 17 0 19 2
27 5 18 2 -10 2 -26 0 -35z m73 15 c0 -36 -10 -32 -14 6 -2 14 1 26 5 26 5 0
9 -14 9 -32z m70 -23 c0 -5 -9 1 -20 15 -11 14 -20 30 -20 35 0 6 9 -1 20 -15
11 -14 20 -29 20 -35z m27 3 c-2 -13 -4 -5 -4 17 -1 22 1 32 4 23 2 -10 2 -28
0 -40z m87 35 c3 -10 9 -25 12 -33 4 -8 -3 -3 -15 12 -23 28 -26 38 -12 38 5
0 11 -8 15 -17z m43 -5 c-3 -8 -6 -5 -6 6 -1 11 2 17 5 13 3 -3 4 -12 1 -19z
m61 -36 c16 -13 15 -14 -3 -10 -15 2 -20 12 -22 38 -1 23 1 26 4 10 2 -14 12
-31 21 -38z m112 -10 c0 -3 -7 3 -15 14 -8 10 -14 28 -14 39 0 14 4 10 14 -14
8 -18 15 -36 15 -39z m387 21 c-3 -10 -5 -2 -5 17 0 19 2 27 5 18 2 -10 2 -26
0 -35z m107 -3 l7 -25 -15 25 c-9 14 -15 32 -15 40 0 13 1 13 8 0 5 -8 12 -26
15 -40z m48 15 c-2 -19 -6 -35 -8 -35 -2 0 -4 16 -4 35 0 19 4 35 8 35 4 0 6
-16 4 -35z m33 25 c3 -5 1 -10 -4 -10 -6 0 -11 5 -11 10 0 6 2 10 4 10 3 0 8
-4 11 -10z m45 -20 c0 -16 -4 -30 -10 -30 -5 0 -10 14 -10 30 0 17 5 30 10 30
6 0 10 -13 10 -30z m-550 -12 c0 -4 -11 -2 -25 4 -14 6 -25 15 -25 19 0 4 11
2 25 -4 14 -7 25 -15 25 -19z m46 12 c8 0 14 -5 14 -10 0 -7 -6 -7 -20 0 -11
6 -20 16 -19 23 0 9 2 9 6 0 2 -7 11 -13 19 -13z m85 -6 c14 -37 6 -39 -15 -4
-10 17 -13 30 -6 30 6 0 15 -12 21 -26z m62 5 l22 -21 -27 13 c-16 7 -28 16
-28 21 0 13 9 10 33 -13z m85 -4 c7 -14 12 -29 12 -33 -1 -10 -40 38 -40 49 0
18 17 8 28 -16z m-674 -101 c3 -8 2 -12 -4 -9 -6 3 -10 10 -10 16 0 14 7 11
14 -7z m68 -22 c-3 -30 -1 -32 30 -34 l33 -1 -33 -4 c-32 -4 -33 -6 -30 -40 2
-23 -2 -38 -10 -41 -9 -3 -12 17 -12 78 0 61 3 81 13 77 7 -2 11 -16 9 -35z
m186 -29 c27 -34 52 -59 56 -56 3 3 6 -5 6 -18 -1 -24 -1 -24 -26 6 -15 17
-44 50 -65 74 -37 42 -50 66 -30 59 5 -1 32 -31 59 -65z m174 -13 c-4 -102
-23 -96 -21 6 1 47 6 74 13 74 7 0 10 -26 8 -80z m108 0 c0 -47 -4 -80 -10
-80 -6 0 -10 33 -10 80 0 47 4 80 10 80 6 0 10 -33 10 -80z m140 0 c0 -47 -4
-80 -10 -80 -6 0 -10 33 -10 80 0 47 4 80 10 80 6 0 10 -33 10 -80z m253 3
c-2 -107 -23 -110 -23 -4 0 58 4 81 13 81 9 0 12 -21 10 -77z m-1138 5 c39
-90 38 -88 26 -88 -7 0 -17 13 -22 29 -6 17 -19 47 -30 67 -21 42 -23 54 -10
54 4 0 21 -28 36 -62z m102 44 c-33 -36 -18 -95 28 -120 18 -10 18 -11 2 -12
-28 0 -67 45 -67 77 0 31 24 73 42 73 6 0 4 -8 -5 -18z m859 -4 c-30 -42 -18
-90 29 -117 18 -11 18 -11 -5 -6 -56 15 -79 86 -40 125 27 27 35 25 16 -2z
m-1021 -58 c3 -5 1 -10 -4 -10 -6 0 -11 5 -11 10 0 6 2 10 4 10 3 0 8 -4 11
-10z m273 -32 c-2 -12 -8 -23 -14 -25 -7 -2 -10 6 -7 22 6 30 26 34 21 3z
m859 2 c-5 -31 -17 -36 -17 -7 0 15 4 27 10 27 5 0 9 -9 7 -20z m-1161 -37
c-10 -10 -19 5 -10 18 6 11 8 11 12 0 2 -7 1 -15 -2 -18z m444 7 c0 -5 -5 -10
-11 -10 -5 0 -7 5 -4 10 3 6 8 10 11 10 2 0 4 -4 4 -10z m470 0 c0 -5 -5 -10
-11 -10 -5 0 -7 5 -4 10 3 6 8 10 11 10 2 0 4 -4 4 -10z m-144 -111 c558 -54
1071 -357 1392 -822 491 -713 429 -1673 -151 -2327 -291 -329 -699 -548 -1152
-621 -104 -17 -446 -17 -550 0 -737 118 -1323 614 -1545 1308 -256 799 51
1675 755 2148 364 244 812 357 1251 314z m-1949 -335 c105 -79 102 -234 -5
-297 -44 -26 -128 -26 -178 -1 -58 31 -86 84 -82 160 4 71 34 119 90 148 45
23 138 17 175 -10z m3560 10 c82 -40 118 -155 75 -241 -59 -116 -239 -118
-306 -4 -37 64 -21 165 36 218 47 45 132 56 195 27z m-4330 -705 c79 -38 113
-148 71 -229 -33 -65 -76 -90 -153 -90 -101 0 -165 57 -172 152 -11 140 125
229 254 167z m5093 -1 c140 -71 107 -291 -47 -317 -50 -9 -109 2 -142 26 -42
31 -73 100 -67 151 17 134 137 200 256 140z m-4484 -660 c-3 -13 -6 -83 -6
-156 l0 -133 -29 15 c-16 9 -38 34 -50 59 -36 73 -26 152 26 203 40 40 68 46
59 12z m-602 -861 c72 -41 100 -141 62 -225 -37 -82 -148 -115 -236 -70 -117
61 -117 236 0 296 58 29 123 29 174 -1z m5091 0 c112 -63 109 -236 -5 -295
-156 -81 -312 78 -231 235 40 80 151 108 236 60z m-4398 -754 c54 -25 83 -80
83 -156 0 -55 -4 -67 -30 -99 -65 -78 -177 -88 -251 -21 -89 81 -70 233 36
279 42 18 120 17 162 -3z m3686 3 c108 -44 128 -198 38 -279 -64 -58 -156 -60
-226 -6 -38 31 -55 71 -55 134 0 67 31 123 82 148 40 20 117 22 161 3z m-4813
-1246 c16 -35 32 -66 37 -67 5 -2 20 27 33 64 24 65 27 68 60 71 28 2 32 0 18
-8 -15 -9 -18 -26 -18 -101 0 -70 3 -91 15 -95 30 -12 14 -24 -30 -24 -48 0
-55 6 -30 24 13 9 15 28 13 86 l-3 75 -29 -77 c-16 -43 -34 -78 -40 -78 -6 0
-24 34 -40 75 -16 41 -30 75 -32 75 -2 0 -4 -36 -4 -80 0 -66 3 -80 16 -80 8
0 12 -4 9 -10 -3 -5 -22 -10 -41 -10 -19 0 -34 5 -34 10 0 6 7 10 15 10 12 0
15 17 15 95 0 79 -3 96 -17 105 -15 8 -10 10 20 8 37 -3 40 -6 67 -68z m253
63 c-17 -6 -18 -174 -1 -191 20 -20 65 -14 82 10 24 33 22 163 -1 177 -14 8
-10 10 22 10 22 0 34 -3 28 -6 -9 -3 -13 -29 -13 -78 0 -41 -5 -85 -11 -98
-11 -25 -47 -47 -74 -47 -27 0 -63 22 -74 47 -6 13 -11 54 -11 91 0 40 -5 73
-12 80 -9 9 -2 12 33 11 24 0 38 -3 32 -6z m230 0 c-8 -3 -13 -24 -13 -54 l0
-50 48 3 47 3 3 47 c2 38 0 47 -15 51 -10 3 5 5 32 5 28 0 44 -2 38 -5 -16 -6
-18 -203 -3 -203 6 0 10 -4 10 -10 0 -5 -18 -10 -40 -10 -22 0 -40 5 -40 10 0
6 5 10 10 10 6 0 10 20 10 45 l0 45 -50 0 -50 0 0 -45 c0 -25 5 -45 10 -45 6
0 10 -4 10 -10 0 -5 -18 -10 -40 -10 -22 0 -40 5 -40 10 0 6 5 10 10 10 6 0
10 40 10 99 0 86 -2 100 -17 104 -10 3 5 5 32 5 28 0 44 -2 38 -5z m330 -94
c21 -52 45 -99 53 -105 23 -18 16 -24 -26 -24 -36 0 -54 13 -31 22 5 2 5 13 0
26 -7 19 -16 22 -57 22 -42 0 -50 -3 -60 -25 -7 -15 -8 -25 -2 -25 6 0 10 -4
10 -10 0 -5 -11 -10 -25 -10 -14 0 -25 5 -25 10 0 6 4 10 8 10 4 0 28 47 52
105 25 57 49 103 54 102 5 -2 27 -46 49 -98z m178 24 l35 -77 29 77 c29 76 30
77 65 77 29 -1 32 -2 18 -11 -25 -14 -27 -199 -2 -199 8 0 12 -4 9 -10 -8 -13
-85 -13 -85 -1 0 5 4 11 9 13 8 3 17 114 12 143 -1 6 -14 -21 -29 -59 -15 -38
-32 -71 -38 -73 -6 -2 -24 29 -40 69 l-29 73 -3 -75 c-2 -46 1 -76 8 -78 23
-8 8 -22 -25 -22 -36 0 -47 13 -20 24 22 8 21 168 -1 190 -14 15 -12 16 19 16
33 0 35 -3 68 -77z m272 7 c17 -38 33 -70 37 -70 3 0 17 30 31 68 25 63 28 67
60 70 19 1 29 -1 22 -5 -16 -11 -20 -196 -4 -201 6 -2 11 -8 11 -13 0 -12 -77
-12 -85 1 -3 6 1 10 9 10 13 0 16 14 16 80 0 44 -2 80 -4 80 -2 0 -16 -34 -31
-75 -15 -41 -31 -75 -36 -75 -6 0 -19 21 -29 48 -49 116 -49 116 -49 25 -1
-67 2 -83 14 -83 8 0 15 -4 15 -10 0 -5 -16 -10 -35 -10 -19 0 -35 5 -35 10 0
6 5 10 10 10 6 0 10 40 10 99 0 86 -2 100 -17 104 -10 3 -1 5 20 6 38 1 39 1
70 -69z m332 -31 c22 -56 46 -103 53 -106 25 -11 11 -23 -28 -23 -37 0 -55 13
-29 22 9 3 9 10 0 26 -10 18 -20 22 -61 22 -41 0 -50 -3 -56 -22 -4 -13 -2
-24 5 -26 19 -6 1 -22 -25 -22 -26 0 -33 15 -10 23 7 3 16 17 20 31 10 40 74
176 83 176 4 0 26 -46 48 -101z m260 78 c55 -47 41 -158 -25 -192 -33 -17
-145 -21 -155 -5 -3 6 1 10 9 10 25 0 23 185 -1 199 -13 8 3 10 64 11 71 0 85
-3 108 -23z m324 -82 c24 -58 47 -105 52 -105 5 0 9 -4 9 -10 0 -5 -18 -10
-40 -10 -36 0 -55 13 -30 22 5 2 7 13 4 26 -6 19 -13 22 -55 22 -40 0 -50 -4
-60 -22 -9 -16 -9 -23 0 -26 22 -7 10 -22 -19 -22 -33 0 -37 7 -17 24 8 6 23
34 35 61 43 105 63 145 70 145 5 0 27 -47 51 -105z m152 96 c-9 -6 -14 -35
-15 -102 l-1 -94 43 -3 c33 -2 42 0 42 12 0 9 5 16 11 16 6 0 9 -10 7 -22 -3
-21 -9 -23 -80 -26 -49 -2 -78 1 -78 8 0 5 5 10 10 10 6 0 10 38 10 95 0 79
-3 96 -17 104 -14 8 -7 10 32 11 32 0 45 -3 36 -9z m280 0 c-11 -7 -10 -14 5
-40 10 -17 22 -31 25 -31 4 0 18 14 30 31 18 26 19 33 8 40 -10 6 -3 8 21 8
19 0 29 -3 22 -6 -7 -2 -26 -24 -42 -48 l-30 -44 31 -53 c17 -29 35 -54 40
-56 23 -9 5 -22 -31 -22 -37 0 -55 13 -29 22 11 4 -27 78 -39 78 -14 0 -55
-74 -43 -78 22 -7 10 -22 -19 -22 -31 0 -41 14 -16 23 7 3 25 26 40 51 l27 46
-27 45 c-14 25 -33 49 -42 55 -13 7 -4 9 33 10 32 0 45 -3 36 -9z m309 -6 c65
-33 63 -155 -3 -195 -39 -24 -68 -25 -108 -4 -31 16 -59 66 -59 105 0 33 29
85 53 97 32 16 84 14 117 -3z m224 -7 c21 -30 20 -50 -4 -81 l-21 -26 27 -41
c15 -22 33 -40 40 -40 8 0 14 -4 14 -10 0 -5 -13 -10 -29 -10 -24 0 -35 9 -61
50 -18 28 -38 50 -46 50 -20 0 -19 -69 1 -76 8 -4 15 -10 15 -15 0 -12 -77
-11 -85 1 -3 6 1 10 9 10 25 0 23 185 -1 199 -14 8 0 10 54 11 63 0 74 -3 87
-22z m216 -55 c18 -43 37 -90 42 -105 6 -16 14 -28 19 -28 5 0 9 -4 9 -10 0
-5 -18 -10 -40 -10 -37 0 -55 13 -29 22 7 2 9 13 5 26 -6 19 -15 22 -56 22
-41 0 -51 -4 -61 -22 -9 -16 -9 -23 0 -26 21 -7 11 -22 -15 -22 -14 0 -24 3
-22 8 8 15 51 109 75 165 14 31 29 57 33 57 5 0 23 -35 40 -77z m254 65 c-4
-7 -17 -29 -29 -48 -12 -19 -36 -61 -54 -92 l-32 -58 50 0 c39 0 51 4 51 15 0
8 5 15 11 15 6 0 9 -10 7 -22 -3 -21 -9 -23 -80 -26 -54 -2 -78 1 -78 9 0 6
25 53 55 104 30 52 55 96 55 99 0 3 -20 6 -45 6 -33 0 -45 -4 -45 -15 0 -8 -4
-15 -10 -15 -5 0 -10 9 -10 20 0 18 7 20 81 20 61 0 78 -3 73 -12z m130 -58
c15 -39 31 -70 35 -70 3 0 18 30 32 68 25 63 28 67 60 69 19 1 28 0 22 -3 -16
-7 -18 -204 -3 -204 6 0 10 -4 10 -10 0 -5 -18 -10 -39 -10 -22 0 -43 5 -46
10 -3 6 1 10 9 10 13 0 16 14 15 83 l0 82 -31 -78 c-17 -43 -35 -76 -40 -75
-5 2 -24 37 -41 78 l-32 75 -3 -75 c-2 -58 0 -77 13 -86 23 -17 18 -24 -20
-24 -19 0 -35 5 -35 10 0 6 5 10 10 10 6 0 10 40 10 99 0 86 -2 100 -17 104
-10 3 0 5 22 6 l40 1 29 -70z m357 61 c-11 -7 -9 -16 10 -50 12 -22 25 -41 28
-41 8 0 51 67 51 79 0 5 -6 12 -12 14 -7 3 3 6 22 6 19 0 30 -3 24 -7 -6 -4
-27 -33 -47 -65 -40 -62 -50 -123 -22 -133 30 -12 14 -24 -30 -24 -25 0 -45 5
-45 10 0 6 7 10 15 10 28 0 18 79 -19 140 -27 47 -37 55 -62 55 l-29 0 -3 -93
c-2 -76 0 -93 13 -98 30 -12 14 -24 -30 -24 -44 0 -60 12 -30 24 12 4 15 25
15 95 0 75 -3 92 -17 100 -13 8 9 10 82 11 61 0 95 -4 86 -9z m355 -73 l59
-82 3 69 c2 57 0 72 -14 82 -15 11 -12 13 27 12 24 -1 36 -3 27 -6 -16 -4 -18
-18 -18 -108 0 -57 -4 -106 -9 -109 -5 -4 -38 34 -73 84 -34 49 -66 89 -70 90
-15 0 -9 -138 7 -154 22 -22 19 -26 -20 -26 -36 0 -47 13 -20 24 12 4 15 25
15 95 0 75 -3 92 -17 100 -15 9 -13 10 13 11 27 0 38 -9 90 -82z m295 72 c31
-17 52 -68 46 -117 -8 -76 -66 -115 -137 -94 -48 14 -70 51 -70 116 0 64 39
105 100 105 23 0 50 -5 61 -10z m175 -65 c16 -41 31 -75 34 -75 3 0 18 34 34
75 27 72 30 75 60 74 17 0 25 -3 19 -6 -16 -6 -18 -203 -3 -203 6 0 10 -4 10
-10 0 -5 -18 -10 -40 -10 -37 0 -55 13 -30 22 7 2 10 32 8 78 l-3 75 -29 -73
c-15 -40 -33 -71 -39 -69 -5 1 -24 39 -41 82 l-31 80 -3 -80 c-2 -63 0 -82 13
-91 23 -17 18 -24 -20 -24 -19 0 -35 5 -35 10 0 6 5 10 10 10 6 0 10 40 10 99
0 86 -2 100 -17 104 -10 3 1 5 23 6 l41 1 29 -75z m252 64 c-15 -8 -18 -25
-18 -100 0 -70 3 -91 15 -95 30 -12 14 -24 -30 -24 -25 0 -45 5 -45 10 0 6 7
10 15 10 12 0 15 17 15 95 0 79 -3 96 -17 104 -14 8 -7 10 32 10 39 0 46 -2
33 -10z m213 -18 c24 -25 29 -37 29 -80 0 -42 -5 -56 -29 -83 -27 -30 -34 -33
-105 -36 -51 -3 -76 -1 -76 7 0 6 5 11 10 11 6 0 10 38 10 95 0 79 -3 96 -17
104 -13 8 4 10 65 11 79 0 85 -2 113 -29z m221 -72 c21 -52 45 -99 53 -105 24
-18 18 -24 -24 -24 -39 0 -65 15 -37 22 10 2 11 9 5 26 -7 19 -16 22 -57 22
-42 0 -50 -3 -60 -25 -7 -15 -8 -25 -2 -25 6 0 10 -4 10 -10 0 -5 -11 -10 -25
-10 -14 0 -25 5 -25 10 0 6 4 10 8 10 4 0 28 47 52 105 25 58 49 103 55 102 5
-2 26 -46 47 -98z m266 74 c2 -13 -1 -23 -7 -23 -6 0 -11 6 -11 14 0 8 -7 17
-16 20 -60 23 -108 -19 -108 -94 0 -63 30 -100 81 -100 30 0 33 3 33 30 0 17
-7 33 -17 39 -14 8 -7 10 32 10 39 0 46 -2 33 -10 -12 -6 -18 -22 -18 -44 0
-32 -2 -34 -44 -40 -81 -13 -136 35 -136 118 0 41 5 53 30 78 27 27 35 30 87
27 51 -3 58 -6 61 -25z m120 16 c-15 -8 -18 -25 -18 -100 0 -70 3 -91 15 -95
30 -12 14 -24 -30 -24 -44 0 -60 12 -30 24 12 4 15 25 15 95 0 75 -3 92 -17
100 -14 8 -7 10 32 10 39 0 46 -2 33 -10z m-3483 -119 c-3 -5 -22 -10 -41 -10
-19 0 -34 5 -34 10 0 6 18 10 41 10 24 0 38 -4 34 -10z m-1895 -200 c-12 -8
-12 -14 4 -46 l17 -38 25 30 c13 16 22 37 20 47 -3 13 2 17 21 17 l25 0 -37
-45 c-44 -54 -42 -71 10 -139 l35 -46 -48 0 c-34 0 -43 3 -32 10 13 8 12 15
-6 47 -12 21 -25 38 -29 38 -4 0 -17 -17 -29 -38 -18 -32 -19 -39 -6 -47 10
-7 -11 -10 -69 -10 -66 0 -82 3 -73 12 16 16 16 190 0 206 -9 9 10 12 88 12
64 0 94 -4 84 -10z m327 -6 c3 -8 0 -21 -6 -27 -9 -9 -13 -6 -18 11 -4 18 -12
22 -32 20 -25 -3 -26 -5 -29 -83 -3 -95 2 -122 26 -128 9 -3 -7 -5 -37 -6 -47
-1 -52 1 -38 12 15 10 17 27 15 107 l-3 95 -27 3 c-20 2 -28 -1 -28 -12 0 -8
-4 -18 -10 -21 -6 -4 -10 5 -10 19 l0 26 95 0 c78 0 97 -3 102 -16z m91 5
c-15 -8 -18 -25 -18 -104 0 -79 3 -96 18 -104 13 -8 6 -10 -33 -10 -39 0 -46
2 -32 10 24 14 25 173 0 201 -15 17 -14 18 33 18 38 -1 45 -3 32 -11z m153 1
c20 -11 25 -35 9 -45 -6 -3 -14 5 -20 19 -11 30 -31 33 -54 10 -9 -8 -16 -17
-16 -19 0 -19 19 -39 52 -56 54 -27 68 -61 41 -97 -21 -28 -57 -38 -99 -28
-18 5 -24 13 -24 33 l0 26 25 -27 c26 -28 44 -33 63 -14 23 23 14 58 -20 76
-47 25 -68 49 -68 76 0 44 64 71 111 46z m212 -1 c40 -21 57 -51 57 -106 0
-40 -5 -58 -22 -78 -25 -28 -80 -42 -123 -31 -53 14 -84 116 -51 175 25 45 91
64 139 40z m208 1 c20 -11 25 -35 9 -45 -6 -3 -14 5 -20 19 -11 30 -31 33 -54
10 -9 -8 -16 -17 -16 -19 0 -19 19 -39 52 -56 54 -27 68 -61 41 -97 -21 -28
-57 -38 -99 -28 -18 5 -24 13 -24 33 l0 26 25 -27 c26 -28 44 -33 63 -14 25
25 13 57 -30 84 -50 31 -58 41 -58 71 0 41 65 67 111 43z m126 -3 c-15 -10
-17 -27 -15 -107 l3 -95 34 -3 c23 -2 37 2 43 12 11 20 28 21 28 1 0 -26 21
-16 34 18 65 156 79 187 86 187 4 0 24 -42 45 -92 20 -51 43 -103 51 -115 14
-23 14 -23 -28 -22 -24 0 -37 3 -30 6 14 6 16 35 3 49 -6 5 -33 7 -60 6 -40
-3 -52 -8 -57 -24 -4 -13 -1 -24 7 -29 8 -5 -35 -9 -106 -9 -86 1 -115 3 -102
11 14 8 17 25 17 101 0 75 -3 93 -17 104 -16 12 -12 13 31 14 43 0 47 -2 33
-13z m470 1 c12 -20 12 -37 1 -44 -5 -3 -12 3 -15 14 -6 26 -29 35 -54 22 -34
-19 -23 -48 31 -81 56 -35 69 -60 46 -94 -18 -27 -49 -38 -92 -33 -24 2 -29 8
-32 33 l-2 30 21 -27 c22 -30 47 -36 67 -16 24 24 13 55 -25 79 -65 38 -80 74
-46 111 19 21 87 25 100 6z m121 -2 c-12 -9 -18 -27 -18 -55 l0 -41 55 0 55 0
0 37 c0 20 -7 45 -17 55 -15 17 -14 18 33 18 43 -1 47 -2 32 -14 -15 -11 -18
-29 -18 -104 0 -76 3 -93 18 -101 13 -8 6 -10 -31 -11 -45 0 -47 1 -32 16 10
11 15 29 13 53 -3 36 -3 36 -55 39 l-53 3 0 -45 c0 -32 5 -48 18 -55 13 -8 6
-10 -31 -11 -44 0 -47 1 -33 16 23 23 23 170 -1 196 -15 17 -14 18 33 18 43
-1 47 -2 32 -14z m362 -5 c0 -28 -17 -35 -23 -10 -4 16 -12 20 -34 17 l-28 -3
-3 -90 c-3 -82 -1 -92 19 -107 21 -18 20 -18 -32 -18 -42 1 -50 3 -36 11 14 8
17 25 17 109 0 99 0 100 -24 100 -13 0 -30 -10 -39 -22 l-16 -23 0 28 -1 27
100 0 c92 0 100 -1 100 -19z m98 8 c-15 -8 -18 -25 -18 -104 0 -79 3 -96 18
-104 13 -8 6 -10 -32 -11 -39 0 -47 3 -38 12 16 16 16 190 0 206 -9 9 -1 12
38 12 38 -1 45 -3 32 -11z m166 -5 c23 -22 21 -80 -4 -97 -18 -13 -18 -15 -3
-38 9 -13 27 -36 41 -51 l26 -28 -30 1 c-23 0 -35 9 -59 46 -16 26 -36 49 -42
51 -17 5 -17 -70 -1 -86 9 -9 3 -12 -31 -12 -39 0 -41 1 -27 16 23 23 23 170
-1 196 -15 17 -13 18 50 18 46 0 70 -5 81 -16z m154 5 c-15 -8 -18 -25 -18
-104 0 -79 3 -96 18 -104 13 -8 4 -10 -38 -10 -42 0 -51 2 -37 10 14 8 17 25
17 104 0 79 -3 96 -17 104 -14 8 -5 10 37 10 42 0 51 -2 38 -10z m102 -4 c-12
-11 -14 -36 -12 -110 l3 -95 35 0 c22 0 37 6 40 15 9 22 24 18 24 -5 0 -18 -7
-20 -87 -20 -65 1 -83 3 -70 11 14 8 17 25 17 104 0 79 -3 96 -17 104 -14 8
-7 10 32 11 43 0 47 -2 35 -15z m292 -3 c6 -6 8 -18 4 -28 -6 -14 -10 -13 -32
11 -29 31 -67 29 -96 -7 -20 -22 -25 -107 -8 -137 11 -22 64 -45 85 -37 21 8
19 62 -2 75 -14 8 -7 10 32 11 38 0 46 -3 37 -12 -7 -7 -12 -24 -12 -39 0 -15
-6 -31 -12 -36 -20 -14 -74 -16 -112 -3 -82 27 -89 171 -11 207 33 15 110 12
127 -5z m202 -86 c20 -49 43 -97 52 -108 16 -17 15 -18 -32 -18 -37 1 -45 3
-32 11 12 7 15 15 9 31 -6 17 -16 21 -56 21 -41 0 -51 -4 -59 -22 -7 -17 -6
-25 5 -32 10 -6 6 -9 -17 -9 l-31 0 26 53 c15 28 39 81 54 116 16 37 31 60 37
55 4 -5 24 -49 44 -98z m148 76 c12 -15 39 -51 58 -80 19 -28 38 -52 43 -52 4
0 7 31 7 70 0 55 -3 71 -17 79 -15 8 -10 10 22 11 30 0 36 -3 27 -12 -8 -8
-12 -48 -12 -115 0 -59 -4 -103 -10 -103 -5 0 -37 37 -71 83 -34 45 -66 86
-71 92 -4 5 -8 -25 -8 -67 0 -56 4 -81 16 -92 14 -15 12 -16 -21 -16 -33 0
-35 1 -21 16 12 11 16 36 16 99 0 63 -4 88 -16 99 -14 15 -13 16 9 16 15 0 35
-11 49 -28z m364 -43 c15 -38 30 -72 34 -74 4 -2 20 28 36 68 29 68 32 72 65
75 30 3 32 2 16 -10 -15 -11 -17 -27 -15 -108 3 -92 4 -95 26 -95 21 0 30 15
70 108 26 59 49 107 53 107 3 0 26 -48 51 -107 39 -96 47 -108 69 -108 24 0
24 2 27 94 2 60 -1 98 -9 107 -10 12 -3 14 37 14 38 -1 45 -3 32 -11 -13 -7
-18 -23 -18 -52 l0 -42 43 43 c35 35 39 44 27 52 -11 7 -5 10 23 10 l38 0 -52
-48 -53 -49 32 -41 c18 -22 46 -52 63 -66 l31 -26 -49 0 c-30 0 -43 3 -35 9
10 6 4 19 -27 55 l-41 47 0 -43 c0 -24 5 -49 12 -56 9 -9 -9 -12 -83 -11 -51
0 -88 3 -81 6 15 6 16 39 1 49 -6 4 -31 7 -55 8 -35 1 -45 -3 -53 -20 -6 -15
-6 -25 2 -33 8 -8 -9 -11 -67 -11 -70 0 -76 1 -62 16 12 11 16 36 16 91 0 42
-2 74 -4 72 -2 -2 -18 -39 -36 -81 -17 -43 -35 -78 -39 -78 -3 0 -21 37 -38
83 l-32 82 -1 -82 c0 -68 3 -84 18 -92 13 -8 8 -10 -26 -11 -39 0 -42 1 -28
16 23 23 23 170 -1 196 -15 17 -14 18 20 18 34 0 36 -2 63 -71z m834 52 c0
-27 -17 -35 -23 -11 -3 14 -14 20 -31 20 l-26 0 0 -100 c0 -84 3 -101 18 -109
13 -8 4 -10 -38 -10 -42 0 -51 2 -37 10 14 8 17 25 17 109 l0 100 -26 0 c-17
0 -28 -6 -31 -20 -6 -24 -23 -16 -23 11 0 18 8 19 100 19 92 0 100 -1 100 -19z
m175 -86 c20 -49 44 -98 52 -107 15 -17 13 -18 -33 -18 -37 1 -45 3 -32 11 12
7 15 15 9 31 -6 17 -16 21 -56 21 -41 0 -51 -4 -59 -22 -7 -17 -6 -25 5 -32
10 -6 6 -9 -17 -9 l-31 0 32 63 c17 34 41 86 53 116 13 33 26 51 31 45 5 -5
26 -49 46 -99z m213 89 c27 -19 29 -55 3 -78 -18 -17 -18 -18 5 -41 29 -29 30
-49 4 -75 -16 -16 -33 -20 -87 -20 -51 1 -64 3 -50 11 24 14 25 179 1 203 -14
15 -10 16 43 16 37 0 67 -6 81 -16z m-3600 -310 c28 -19 30 -69 3 -86 -18 -11
-18 -12 5 -31 27 -21 31 -58 8 -81 -11 -12 -35 -16 -87 -16 -54 1 -68 3 -54
11 14 8 17 25 17 104 0 57 -4 95 -10 95 -5 0 -10 5 -10 10 0 16 103 12 128 -6z
m142 6 c0 -5 -4 -10 -10 -10 -6 0 -10 -37 -10 -90 0 -78 2 -91 19 -100 31 -16
59 -12 75 12 22 31 22 166 1 174 -35 14 -9 22 70 23 47 0 85 -4 85 -9 0 -4 -5
-10 -11 -12 -11 -4 20 -68 32 -68 12 0 43 55 42 73 -1 12 6 17 23 17 13 0 24
-4 24 -10 0 -5 -4 -10 -10 -10 -5 0 -23 -18 -40 -41 l-29 -41 20 -40 c12 -23
31 -51 44 -64 l24 -24 -47 0 c-31 0 -42 3 -33 9 11 7 10 15 -8 45 -13 20 -26
36 -29 36 -4 0 -18 -16 -31 -36 -21 -30 -22 -37 -10 -45 10 -6 5 -9 -19 -9
l-33 0 21 23 c12 12 30 37 41 54 l20 33 -28 50 c-23 41 -33 50 -55 50 l-28 0
0 -79 c0 -64 -4 -83 -21 -105 -26 -32 -84 -36 -120 -7 -21 17 -24 29 -28 105
-1 47 -7 86 -12 86 -5 0 -9 5 -9 10 0 6 18 10 40 10 22 0 40 -4 40 -10z m520
-5 c52 -27 72 -88 49 -154 -28 -79 -157 -82 -194 -6 -27 59 -11 125 39 156 38
23 67 24 106 4z m237 -11 c17 -23 10 -74 -14 -91 -15 -11 -15 -16 -3 -39 8
-14 27 -37 43 -50 l29 -24 -34 0 c-28 1 -37 7 -60 45 -32 53 -58 60 -58 16 0
-16 7 -37 16 -45 14 -15 11 -16 -33 -16 -37 1 -44 3 -30 11 24 14 26 199 1
199 -8 0 -12 5 -8 11 4 7 30 10 71 7 50 -3 69 -9 80 -24z m223 11 c16 -8 36
-25 44 -37 32 -45 12 -143 -33 -168 -11 -5 -38 -10 -61 -10 -60 0 -100 41
-100 104 0 59 16 91 54 110 39 20 60 20 96 1z m338 -12 c2 -13 -1 -23 -7 -23
-6 0 -11 7 -11 15 0 10 -11 15 -35 15 -35 0 -35 0 -35 -45 0 -41 2 -45 25 -45
16 0 25 6 25 15 0 8 5 15 10 15 6 0 10 -18 10 -41 0 -24 -4 -38 -10 -34 -5 3
-10 13 -10 21 0 8 -10 14 -25 14 -23 0 -25 -3 -25 -49 0 -39 4 -51 18 -54 9
-3 -8 -5 -38 -5 -30 0 -47 2 -37 5 15 4 17 18 17 104 0 59 -4 99 -10 99 -5 0
-10 5 -10 10 0 7 27 10 73 8 66 -3 72 -5 75 -25z m112 18 c0 -5 -7 -11 -15
-15 -22 -8 -21 -168 1 -190 14 -15 11 -16 -33 -16 -37 1 -44 3 -30 11 14 8 17
25 17 104 0 78 -3 95 -15 95 -8 0 -15 5 -15 10 0 6 20 10 45 10 25 0 45 -4 45
-9z m100 -1 c0 -5 -4 -10 -10 -10 -6 0 -10 -40 -10 -100 l0 -100 35 0 c22 0
38 6 41 15 9 22 24 18 24 -5 0 -19 -6 -20 -87 -19 -49 1 -80 3 -70 6 15 4 17
18 17 104 0 59 -4 99 -10 99 -5 0 -10 5 -10 10 0 6 18 10 40 10 22 0 40 -4 40
-10z m180 1 c0 -5 -7 -11 -15 -15 -22 -8 -21 -168 1 -190 14 -15 11 -16 -33
-16 -37 1 -44 3 -30 11 14 8 17 25 17 104 0 78 -3 95 -15 95 -8 0 -15 5 -15
10 0 6 20 10 45 10 25 0 45 -4 45 -9z m340 -1 c0 -5 -4 -10 -10 -10 -6 0 -10
-40 -10 -100 l0 -100 40 0 c29 0 40 4 40 15 0 8 5 15 10 15 6 0 10 -9 10 -20
0 -19 -7 -20 -132 -20 -78 0 -127 4 -120 9 8 5 12 17 10 27 -2 15 -14 20 -55
22 -45 3 -53 0 -63 -19 -10 -17 -9 -23 1 -30 9 -6 2 -9 -21 -9 -27 1 -31 3
-19 10 9 5 36 55 59 110 23 56 47 99 52 98 5 -2 29 -48 52 -103 38 -88 46
-100 69 -103 l27 -3 0 100 c0 61 -4 101 -10 101 -5 0 -10 5 -10 10 0 6 18 10
40 10 22 0 40 -4 40 -10z m180 0 c0 -5 -4 -10 -10 -10 -6 0 -10 -40 -10 -99 0
-86 2 -100 18 -104 9 -3 -5 -5 -33 -5 -27 0 -44 2 -37 5 15 6 17 203 2 203 -5
0 -10 5 -10 10 0 6 18 10 40 10 22 0 40 -4 40 -10z"/>
<path d="M5250 9230 c0 -5 5 -10 10 -10 6 0 10 5 10 10 0 6 -4 10 -10 10 -5 0
-10 -4 -10 -10z"/>
<path d="M5312 9120 c0 -14 2 -19 5 -12 2 6 2 18 0 25 -3 6 -5 1 -5 -13z"/>
<path d="M5190 9070 c0 -5 5 -10 10 -10 6 0 10 5 10 10 0 6 -4 10 -10 10 -5 0
-10 -4 -10 -10z"/>
<path d="M5090 9170 c0 -5 5 -10 10 -10 6 0 10 5 10 10 0 6 -4 10 -10 10 -5 0
-10 -4 -10 -10z"/>
<path d="M5310 8840 c0 -37 -2 -40 -27 -41 -25 0 -26 -1 -8 -9 46 -20 55 -13
55 40 0 28 -4 50 -10 50 -5 0 -10 -18 -10 -40z"/>
<path d="M5995 7348 c-3 -7 -4 -488 -3 -1068 l3 -1055 203 -3 202 -2 0 1070 0
1070 -200 0 c-151 0 -202 -3 -205 -12z"/>
<path d="M3880 6275 l0 -1065 205 0 205 0 0 1065 0 1065 -205 0 -205 0 0
-1065z"/>
<path d="M4765 7325 c-78 -21 -103 -33 -164 -75 -140 -98 -217 -279 -191 -447
21 -140 119 -282 236 -345 140 -76 325 -76 454 -1 61 36 146 118 177 171 86
147 83 358 -7 494 -111 167 -323 253 -505 203z"/>
<path d="M5460 6800 l0 -530 205 0 205 0 0 530 0 530 -205 0 -205 0 0 -530z"/>
<path d="M4425 6258 c-3 -7 -4 -246 -3 -531 l3 -519 200 1 200 0 3 531 2 530
-200 0 c-151 0 -202 -3 -205 -12z"/>
<path d="M5293 6155 c-213 -58 -353 -238 -353 -455 0 -359 377 -583 694 -412
117 63 215 205 236 345 50 322 -265 606 -577 522z"/>
<path d="M2902 3416 c-12 -27 -22 -50 -22 -52 0 -2 18 -4 40 -4 45 0 47 6 21
65 l-18 40 -21 -49z"/>
<path d="M3682 3415 c-13 -26 -21 -49 -18 -52 2 -2 22 -3 44 -1 l39 3 -21 48
-21 49 -23 -47z"/>
<path d="M3902 3404 l3 -99 31 -3 c19 -2 40 5 57 18 23 19 27 29 27 75 0 68
-20 94 -78 102 l-43 6 3 -99z"/>
<path d="M4263 3410 l-21 -50 44 0 44 0 -17 43 c-24 62 -27 62 -50 7z"/>
<path d="M4990 3482 c-34 -28 -40 -117 -10 -154 49 -62 120 -18 120 74 0 80
-58 122 -110 80z"/>
<path d="M5220 3450 c0 -56 14 -69 49 -50 26 14 30 84 5 94 -43 17 -54 8 -54
-44z"/>
<path d="M5452 3405 l-22 -45 46 0 c40 0 45 2 39 18 -4 9 -12 29 -17 45 -5 15
-13 27 -17 27 -4 0 -17 -20 -29 -45z"/>
<path d="M6821 3481 c-24 -24 -35 -78 -26 -120 12 -57 76 -80 115 -41 28 28
28 117 -1 154 -24 31 -61 34 -88 7z"/>
<path d="M7432 3404 l3 -99 32 -3 c18 -2 41 2 52 7 25 14 45 74 37 115 -8 44
-35 66 -86 73 l-41 6 3 -99z"/>
<path d="M7701 3415 c-12 -26 -21 -49 -21 -51 0 -2 18 -4 40 -4 22 0 40 4 40
9 0 5 -9 28 -19 51 l-19 43 -21 -48z"/>
<path d="M2674 3167 c-3 -8 -4 -54 -2 -103 3 -81 5 -89 23 -92 15 -2 31 10 55
44 18 26 33 52 33 59 0 6 -14 33 -32 58 -32 47 -66 62 -77 34z"/>
<path d="M3493 3165 c-48 -33 -50 -140 -5 -175 32 -26 45 -25 79 4 25 21 28
31 28 81 0 50 -3 60 -28 81 -33 28 -45 29 -74 9z"/>
<path d="M4082 3085 l-22 -45 46 0 c25 0 44 3 42 8 -2 4 -10 24 -18 45 -8 20
-17 37 -20 37 -3 0 -16 -20 -28 -45z"/>
<path d="M5047 3173 c-4 -3 -7 -28 -7 -55 0 -41 3 -48 19 -48 47 0 71 78 32
100 -23 12 -35 13 -44 3z"/>
<path d="M5804 3125 c-4 -11 -13 -35 -20 -52 l-13 -33 40 0 c44 0 44 1 13 74
-11 28 -13 29 -20 11z"/>
<path d="M6641 3103 c-7 -21 -15 -44 -17 -50 -4 -9 6 -13 35 -13 l41 0 -17 43
c-23 60 -28 62 -42 20z"/>
<path d="M7312 3091 l-21 -51 40 0 c44 0 44 1 14 73 l-12 28 -21 -50z"/>
<path d="M7537 3173 c-4 -3 -7 -26 -7 -50 0 -49 16 -57 50 -23 21 21 25 38 12
56 -9 15 -46 26 -55 17z"/>
<path d="M7530 3025 c0 -50 15 -64 49 -45 28 14 27 55 -1 74 -38 27 -48 20
-48 -29z"/>
<path d="M3930 2815 c0 -34 4 -45 16 -45 28 0 54 20 54 43 0 29 -18 47 -47 47
-21 0 -23 -5 -23 -45z"/>
<path d="M3936 2752 c-10 -10 -6 -81 5 -87 16 -11 56 3 63 21 12 31 -47 88
-68 66z"/>
<path d="M4570 2833 c-18 -23 -21 -37 -18 -82 7 -85 63 -117 113 -66 20 19 25
34 25 73 0 92 -71 136 -120 75z"/>
<path d="M4815 2810 c0 -44 2 -50 21 -50 30 0 46 23 42 62 -3 29 -7 33 -33 36
-30 3 -30 3 -30 -48z"/>
<path d="M5043 2845 c-28 -20 -39 -76 -24 -126 18 -61 70 -78 109 -36 30 32
31 128 2 157 -24 24 -57 26 -87 5z"/>
<path d="M5962 2793 c-5 -16 -13 -36 -17 -45 -6 -15 -1 -18 33 -18 l41 0 -17
45 c-9 25 -19 45 -23 45 -4 0 -12 -12 -17 -27z"/>
</g>
</svg>
